<svg width="200" height="200" viewBox="0 0 200 200" fill="none" xmlns="http://www.w3.org/2000/svg">
  <path d="M100 20L40 50V105C40 145 100 180 100 180C100 180 160 145 160 105V50L100 20Z" fill="#f5f5f5" stroke="#d9d9d9" stroke-width="1.5"/>
  <rect x="80" y="95" width="40" height="32" rx="4" fill="#333333" opacity="0.85"/>
  <path d="M88 95V82C88 75.4 93.4 70 100 70C106.6 70 112 75.4 112 82V95" stroke="#333333" stroke-width="3" stroke-linecap="round" fill="none"/>
  <circle cx="100" cy="108" r="4" fill="white"/>
  <rect x="98.5" y="110" width="3" height="6" rx="1.5" fill="white"/>
  <circle cx="55" cy="68" r="3" fill="#d9d9d9" opacity="0.5"/>
  <circle cx="145" cy="68" r="3" fill="#d9d9d9" opacity="0.5"/>
  <circle cx="65" cy="140" r="2" fill="#d9d9d9" opacity="0.3"/>
  <circle cx="135" cy="140" r="2" fill="#d9d9d9" opacity="0.3"/>
</svg>
